<svg xmlns="http://www.w3.org/2000/svg" version="1.1" xmlns:xlink="http://www.w3.org/1999/xlink" xmlns:svgjs="http://svgjs.dev/svgjs" width="2000" height="1247" viewBox="0 0 2000 1247"><g transform="matrix(1,0,0,1,-1.2121212121212466,0.504858299595071)"><svg viewBox="0 0 396 247" data-background-color="#000000" preserveAspectRatio="xMidYMid meet" height="1247" width="2000" xmlns="http://www.w3.org/2000/svg" xmlns:xlink="http://www.w3.org/1999/xlink"><g id="tight-bounds" transform="matrix(1,0,0,1,0.2400000000000091,-0.09999999999999432)"><svg viewBox="0 0 395.52 247.2" height="247.2" width="395.52"><g><svg></svg></g><g><svg viewBox="0 0 395.52 247.2" height="247.2" width="395.52"><g transform="matrix(1,0,0,1,111.22814169741696,47.215199999999996)"><svg viewBox="0 0 173.06371660516606 152.7696" height="152.7696" width="173.06371660516606"><g><svg viewBox="0 0 173.06371660516606 152.7696" height="152.7696" width="173.06371660516606"><g><svg viewBox="0 0 173.06371660516606 152.7696" height="152.7696" width="173.06371660516606"><g><svg viewBox="0 0 173.06371660516606 152.7696" height="152.7696" width="173.06371660516606"><g id="textblocktransform"><svg viewBox="0 0 173.06371660516606 152.7696" height="152.7696" width="173.06371660516606" id="textblock"><g><svg viewBox="0 0 173.06371660516606 152.7696" height="152.7696" width="173.06371660516606"><g transform="matrix(1,0,0,1,0,0)"><svg width="173.06371660516606" viewBox="-0.800000011920929 -26.899999618530273 30.69999885559082 27.100000381469727" height="152.7696" data-palette-color="#ffffff"><path d="M16.45-26.9Q20.6-26.9 23.63-26.15 26.65-25.4 28.28-24.05 29.9-22.7 29.9-21L29.9-21Q29.9-19.25 28.53-18.15 27.15-17.05 24.7-17.05L24.7-17.05Q22.2-17.05 20.48-18.3 18.75-19.55 18.75-21.45L18.75-21.45Q18.75-22.1 18.95-22.7L18.95-22.7Q18.05-22.95 17.35-22.95L17.35-22.95Q16.1-22.95 15.28-22.35 14.45-21.75 14.5-20.65L14.5-20.65Q14.5-19.35 15.8-18.45 17.1-17.55 20-16.2L20-16.2Q22.5-15.1 24.13-14.18 25.75-13.25 26.88-11.85 28-10.45 28-8.55L28-8.55Q28-8.15 27.8-7.05L27.8-7.05Q27-3.7 23.35-1.75 19.7 0.2 13.75 0.2L13.75 0.2Q7.05 0.2 3.13-1.6-0.8-3.4-0.8-6.55L-0.8-6.55Q-0.8-8.7 0.5-9.8 1.8-10.9 3.95-10.9L3.95-10.9Q6.45-10.9 8.22-9.35 10-7.8 10-5.4L10-5.4Q10-4.75 9.85-4.05L9.85-4.05Q11.05-3.75 12.15-3.75L12.15-3.75Q13.45-3.75 14.3-4.45 15.15-5.15 15.15-6.4L15.15-6.4Q15.1-7.55 14-8.38 12.9-9.2 10.5-10.35L10.5-10.35Q8.25-11.4 6.8-12.33 5.35-13.25 4.33-14.65 3.3-16.05 3.3-17.95L3.3-17.95Q3.3-22.05 6.73-24.48 10.15-26.9 16.45-26.9L16.45-26.9Z" opacity="1" transform="matrix(1,0,0,1,0,0)" fill="#ffffff" class="wordmark-text-0" data-fill-palette-color="primary" id="text-0"></path></svg></g></svg></g></svg></g></svg></g></svg></g></svg></g></svg></g><path d="M293.529 41.215L293.529 0 46.329 0 46.329 247.2 293.529 247.2 293.529 205.985 279.753 205.985 279.753 233.423 60.106 233.423 60.106 13.777 279.753 13.777 279.753 41.215Z" fill="#ffffff" stroke="transparent" data-fill-palette-color="primary"></path></svg></g><defs></defs></svg><rect width="395.52" height="247.2" fill="none" stroke="none" visibility="hidden"></rect></g></svg></g></svg>